<svg width="201" height="54" viewBox="0 0 201 54" fill="none" xmlns="http://www.w3.org/2000/svg">
<path d="M200.92 26.9242C200.92 23.9663 199.325 21.3876 196.533 19.1882C199.325 17.2163 200.92 14.8652 200.92 12.2107C200.92 5.1573 188.956 0 173.163 0C170.691 0 167.739 0.227528 165.347 0.530899L163.831 4.32303C165.985 3.94382 170.053 3.56461 173.163 3.56461C186.404 3.56461 197.251 7.66011 197.251 12.2107C197.251 13.9551 195.816 15.6236 193.263 17.0646C190.232 15.4719 186.483 14.3343 182.256 13.5758L184.33 8.41854H180.581L178.667 13.1208C176.912 12.9691 174.998 12.8933 173.163 12.8933C162.555 12.8933 155.456 15.0927 155.456 19.1124C155.456 22.8287 162.316 24.7247 173.163 24.7247C173.482 24.7247 173.722 24.7247 173.961 24.7247L172.047 29.5028C161.757 29.6545 155.456 31.4747 155.456 34.9635C155.456 38.2247 160.002 40.3483 167.341 41.0309L165.426 45.7332H169.175L171.01 41.2584C171.727 41.2584 172.445 41.2584 173.163 41.2584C181.139 41.2584 188.238 39.6657 193.263 36.9354C195.736 38.3006 197.251 39.8933 197.251 41.5618C197.251 46.264 186.483 50.5112 173.163 50.5112C169.574 50.5112 166.782 50.2837 163.751 49.8287L162.475 53.014C165.745 53.7725 170.292 54 173.243 54C189.036 54 201 48.7669 201 41.486C201 38.9073 199.405 36.632 196.613 34.6601C199.325 32.6124 200.92 29.9579 200.92 26.9242ZM159.125 19.0365C159.125 17.6714 166.144 16.382 173.083 16.382C174.519 16.382 175.875 16.4579 177.231 16.5337L176.035 19.4916H179.783L180.82 16.9888C183.772 17.4438 186.404 18.1264 188.717 18.9607C184.489 20.3258 179.066 21.1601 173.083 21.1601C166.144 21.1601 159.125 20.0983 159.125 19.0365ZM173.163 37.8455C166.224 37.8455 159.205 36.4045 159.205 35.0393C159.205 34.2051 164.629 33.2949 170.611 33.1433L169.414 36.177H173.163L174.439 33.1433C179.943 33.2191 184.968 34.0534 188.876 35.2669C184.569 36.8596 179.145 37.8455 173.163 37.8455ZM193.104 32.9916C188.637 31.0197 182.655 29.8062 175.795 29.5787L177.789 24.573C183.851 24.1938 189.116 22.9045 193.104 21.1601C195.656 22.8287 197.172 24.8764 197.172 27C197.172 29.1236 195.656 31.2472 193.104 32.9916Z" fill="#0068FF"/>
<path d="M13.7988 23.435C15.7131 22.2215 16.5107 20.553 16.5107 18.8845C16.5107 15.3199 13.7988 12.7412 8.93333 12.7412H2.15357C0.957143 12.8171 0 13.6513 0 14.789V32.9154C0 34.1289 0.957143 34.9631 2.15357 34.9631H9.57143C14.5964 34.9631 17.6274 32.2328 17.6274 28.6682C17.5476 26.3929 16.3512 24.4968 13.7988 23.435ZM3.74881 15.9266H8.77381C11.3262 15.9266 12.6821 17.3676 12.6821 19.112C12.6821 20.7805 11.3262 22.2215 8.77381 22.2215H3.74881V15.9266ZM9.65119 31.8536H3.74881V25.2553H9.65119C12.2833 25.2553 13.7988 26.6963 13.7988 28.5165C13.7988 30.4126 12.2833 31.8536 9.65119 31.8536Z" fill="#0068FF"/>
<path d="M39.4825 31.3985C38.286 31.8536 37.0098 32.1569 35.4944 32.1569C32.6229 32.1569 31.5063 30.4125 31.5063 27.9097V19.0361H27.917V27.9097C27.917 32.8395 31.0277 35.1906 35.5741 35.1906C37.7277 35.1906 40.0408 34.7356 42.2741 33.4463C42.8325 33.1429 43.2313 32.3845 43.2313 31.626V19.0361H39.4825V31.3985Z" fill="#0068FF"/>
<path d="M23.5301 30.4126V12.9688H19.7812V30.8676C19.7812 33.6738 21.4563 35.1907 24.3277 35.1907C25.0455 35.1907 26.242 35.039 26.242 35.039V32.0053C25.8432 32.0053 25.4443 32.0811 25.1253 32.0811C24.0086 32.0811 23.5301 31.3985 23.5301 30.4126Z" fill="#0068FF"/>
<path d="M53.6797 18.8848C48.8142 18.8848 45.5439 22.146 45.5439 26.9999C45.5439 32.3089 48.6547 35.2668 54.0785 35.2668C56.1523 35.2668 58.4654 34.8117 59.9011 33.9775V31.0196C58.2261 31.8539 56.1523 32.3089 54.0785 32.3089C51.2868 32.3089 49.6916 31.0954 49.2928 28.7443H59.5023C60.3796 28.7443 60.938 28.0617 60.938 27.0758V26.014C61.0177 21.6909 58.0666 18.8848 53.6797 18.8848ZM49.213 25.8623C49.4523 23.2078 50.9677 21.7668 53.5999 21.7668C56.0725 21.7668 57.588 23.132 57.588 25.8623H49.213Z" fill="#0068FF"/>
<path d="M107.359 18.8848C104.568 18.8848 102.175 19.7949 100.659 20.6291C100.101 20.9325 99.7021 21.6909 99.7021 22.4494V34.9634H103.371V22.6769C104.408 22.2218 105.924 21.9185 107.2 21.9185C109.672 21.9185 111.347 23.132 111.347 26.1657V34.9634H115.096V26.1657C115.016 21.7668 112.544 18.8848 107.359 18.8848Z" fill="#0068FF"/>
<path d="M129.214 19.0361L125.067 25.4828H124.189L120.122 19.0361H116.293L121.318 26.9996L116.612 34.9631H120.52L124.189 28.8957H125.067L128.816 34.9631H132.804L128.018 26.9996L133.123 19.0361H129.214Z" fill="#0068FF"/>
<path d="M76.8906 23.435C78.8049 22.2215 79.6025 20.553 79.6025 18.8845C79.6025 15.3199 76.8109 12.7412 72.0251 12.7412H65.2454C63.9692 12.7412 63.0918 13.5755 63.0918 14.7131V32.8395C63.0918 34.053 63.9692 34.8873 65.2454 34.8873H72.6632C77.6085 34.8873 80.6394 32.1569 80.6394 28.5923C80.6394 26.3929 79.3632 24.4968 76.8906 23.435ZM66.8406 15.9266H71.7859C74.3382 15.9266 75.6942 17.3676 75.6942 19.112C75.6942 20.7805 74.3382 22.2215 71.7859 22.2215H66.7608V15.9266H66.8406ZM72.743 31.8536H66.8406V25.2553H72.743C75.3751 25.2553 76.8109 26.6963 76.8109 28.5165C76.8109 30.4126 75.3751 31.8536 72.743 31.8536Z" fill="#0068FF"/>
<path d="M90.2109 18.8848C85.3454 18.8848 82.0752 22.146 82.0752 26.9999C82.0752 32.3089 85.1859 35.2668 90.6097 35.2668C92.6835 35.2668 94.9966 34.8117 96.4323 33.9775V31.0196C94.7573 31.8539 92.6835 32.3089 90.6097 32.3089C87.8181 32.3089 86.2228 31.0954 85.824 28.7443H96.0335C96.9109 28.7443 97.4692 28.0617 97.4692 27.0758V26.014C97.6288 21.6909 94.6776 18.8848 90.2109 18.8848ZM85.824 25.8623C86.0633 23.2078 87.5788 21.7668 90.2109 21.7668C92.6835 21.7668 94.199 23.132 94.199 25.8623H85.824Z" fill="#0068FF"/>
</svg>
